<svg width="44" height="44" viewBox="0 0 44 44" fill="none" xmlns="http://www.w3.org/2000/svg">
<g clip-path="url(#clip0_110_71)">
<path fill-rule="evenodd" clip-rule="evenodd" d="M22.0129 0.00546325C25.0574 0.00546325 28.1023 -0.0086305 31.1468 0.00950232C34.0111 0.0266039 36.7013 0.679815 39.0322 2.42112C42.0761 4.69516 43.6337 7.80141 43.9237 11.5496C44.0257 12.8688 43.994 14.1994 43.9957 15.5247C44.0026 20.6646 43.9988 25.8045 43.9982 30.9445C43.998 33.0438 43.7061 35.0934 42.8178 37.0131C41.0157 40.907 37.8724 43.0358 33.7252 43.7735C32.8605 43.9273 31.9684 43.9848 31.0887 43.9874C25.0158 44.0053 18.9428 44.0012 12.8698 43.9948C9.71184 43.9916 6.82357 43.1577 4.36228 41.1088C1.86163 39.0274 0.542056 36.3052 0.131575 33.1136C0.0607626 32.5631 0.0174071 32.0048 0.0168915 31.4501C0.0109618 25.0661 -0.0275812 18.6818 0.0349813 12.2985C0.0691844 8.81088 1.23046 5.71867 3.82672 3.28213C5.98027 1.26122 8.59797 0.205268 11.5069 0.101928C15.0047 -0.0223375 18.5104 0.0724945 22.0127 0.0724945C22.0128 0.0501078 22.0128 0.027764 22.0129 0.00546325ZM21.9785 39.934C24.9081 39.934 27.8376 39.9458 30.767 39.926C31.5332 39.9208 32.3104 39.8827 33.0622 39.7467C35.9337 39.2276 38.1168 37.7874 39.2609 34.9914C39.8421 33.5711 40.032 32.047 40.0567 30.5709C40.1528 24.8445 40.0987 19.1154 40.0919 13.3873C40.0911 12.7667 40.0844 12.1392 39.9967 11.5269C39.6029 8.77745 38.411 6.52387 35.8806 5.15342C34.4682 4.38853 32.935 4.09974 31.3414 4.09922C25.2041 4.09742 19.0668 4.09562 12.9296 4.10296C12.375 4.10365 11.8154 4.13433 11.2666 4.21146C8.14082 4.65034 5.83843 6.19086 4.68618 9.22162C4.22117 10.4446 4.07258 11.7262 4.07233 13.0273C4.07142 19.0173 4.06567 25.0071 4.08019 30.9972C4.08195 31.73 4.13661 32.4734 4.26779 33.1935C4.84972 36.3884 6.63124 38.5844 9.80401 39.4674C10.8613 39.7615 11.9915 39.8914 13.0921 39.9136C16.0532 39.9731 19.0162 39.9338 21.9785 39.934Z" fill="#FAEBD7"/>
<path fill-rule="evenodd" clip-rule="evenodd" d="M33.3396 21.9298C33.3368 28.1937 28.2261 33.2885 21.9606 33.2732C15.6927 33.258 10.645 28.1987 10.6413 21.9282C10.6376 15.6646 15.7408 10.5693 22.011 10.5762C28.2271 10.5829 33.3424 15.7095 33.3396 21.9298ZM21.9948 29.1838C25.9912 29.1868 29.2826 25.8977 29.2757 21.9081C29.2688 17.9461 25.9857 14.6568 22.0218 14.6407C18.0312 14.6245 14.7413 17.9035 14.7328 21.9056C14.7244 25.9134 17.9842 29.1806 21.9948 29.1838Z" fill="#FAEBD7"/>
<path fill-rule="evenodd" clip-rule="evenodd" d="M33.7602 12.8621C32.3414 12.8494 31.2231 11.7141 31.2276 10.2912C31.2321 8.85214 32.3785 7.72382 33.826 7.73371C35.2286 7.74342 36.3717 8.90108 36.3674 10.3077C36.3632 11.7343 35.1989 12.875 33.7602 12.8621Z" fill="#FAEBD7"/>
</g>
<defs>
<clipPath id="clip0_110_71">
<rect width="44" height="44" fill="white"/>
</clipPath>
</defs>
</svg>
