<svg width="194" height="47" viewBox="0 0 194 47" fill="none" xmlns="http://www.w3.org/2000/svg">
<path d="M20.25 33.0625C20.6875 32.6667 20.9896 32.2083 21.1562 31.6875C21.3229 31.1458 21.3229 30.625 21.1562 30.125C21.0104 31.125 20.5729 31.9583 19.8438 32.625C19.3021 33.1458 18.4479 33.5417 17.2812 33.8125C17.7812 33.9375 18.3021 33.9375 18.8438 33.8125C19.3646 33.6875 19.8333 33.4375 20.25 33.0625ZM7.1875 32.8438C7.52083 32.7604 8.02083 32.6875 8.6875 32.625C9.35417 32.5833 9.875 32.5312 10.25 32.4688C9.75 32.3229 9.22917 32.2188 8.6875 32.1562C8.125 32.0938 7.58333 32.125 7.0625 32.25C6.41667 32.3958 5.91667 32.6562 5.5625 33.0312C5.14583 33.4062 4.90625 33.8958 4.84375 34.5C5.17708 33.9792 5.51042 33.6042 5.84375 33.375C6.19792 33.1458 6.64583 32.9688 7.1875 32.8438ZM12.7188 4.375C13.3646 4.1875 14.0938 4.03125 14.9062 3.90625L15.4688 3.8125L16.0312 3.71875L17.1562 3.625C15.6562 3.5 14.1458 3.59375 12.625 3.90625C11.0417 4.23958 9.625 4.8125 8.375 5.625C6.95833 6.54167 5.92708 7.67708 5.28125 9.03125L5.0625 9.5625L4.84375 10.0938L4.5625 11.2188L4.4375 12.3438V13.4688C4.66667 11.6771 5.08333 10.2708 5.6875 9.25C6.41667 8 7.42708 6.95833 8.71875 6.125C9.80208 5.41667 11.1354 4.83333 12.7188 4.375ZM17.2812 15.1562C18.0521 15.5521 19.6042 16.0104 21.9375 16.5312C25.2917 17.2604 28.0938 18.6146 30.3438 20.5938C32.4688 22.4271 33.9062 24.6146 34.6562 27.1562C35.3854 29.6771 35.3542 32.1979 34.5625 34.7188C33.7292 37.3854 32.1354 39.7396 29.7812 41.7812C27.4688 43.7812 24.6146 45.0729 21.2188 45.6562C18.0938 46.1979 14.9792 46.0938 11.875 45.3438C8.8125 44.5729 6.38542 43.3333 4.59375 41.625C2.65625 39.7917 1.84375 37.7188 2.15625 35.4062C2.82292 30.3021 6.8125 28.7708 14.125 30.8125C15.6042 31.2083 16.6875 31.3958 17.375 31.375C17.9583 31.375 18.3646 31.1875 18.5938 30.8125C19.1146 30.0417 18.1458 29.2604 15.6875 28.4688C5.79167 25.1771 1.26042 19.7292 2.09375 12.125C2.48958 8.54167 4.19792 5.77083 7.21875 3.8125C9.90625 2.0625 13.2083 1.1875 17.125 1.1875C21.6875 1.16667 25.3542 2.28125 28.125 4.53125C29.25 5.44792 30.0729 6.45833 30.5938 7.5625C31.0938 8.60417 31.2604 9.57292 31.0938 10.4688C30.3229 14.4271 26.5729 15.5938 19.8438 13.9688L19.2812 13.8438L18.7188 13.7188C18.3021 13.6354 17.9583 13.5833 17.6875 13.5625C17 13.5 16.6042 13.6667 16.5 14.0625C16.375 14.4792 16.6354 14.8438 17.2812 15.1562ZM77.985 7.40625C78.2975 6.51042 78.6308 5.77083 78.985 5.1875C79.5058 4.33333 80.1204 3.82292 80.8288 3.65625C80.3913 3.63542 79.9746 3.75 79.5788 4C79.2038 4.25 78.8808 4.55208 78.61 4.90625C78.1725 5.48958 77.7767 6.26042 77.4225 7.21875C76.86 8.78125 76.5267 10.4375 76.4225 12.1875L76.8288 11L77.2038 9.78125C77.5163 8.76042 77.7767 7.96875 77.985 7.40625ZM74.3288 23.1875C74.5788 22.7708 74.7663 22.3125 74.8913 21.8125C75.0163 21.3125 75.0683 20.8229 75.0475 20.3438L74.735 21L74.4538 21.6562C74.2038 22.1771 73.985 22.5833 73.7975 22.875C73.5683 23.2708 73.2871 23.5938 72.9538 23.8438C72.6413 24.0938 72.2246 24.3021 71.7038 24.4688C72.2038 24.5729 72.6933 24.5 73.1725 24.25C73.61 24.0417 73.9954 23.6875 74.3288 23.1875ZM58.985 19.4375C59.2975 18.9792 59.5683 18.5729 59.7975 18.2188C60.5267 17.1771 61.1829 16.4688 61.7663 16.0938C60.9954 16.3646 60.2142 16.9792 59.4225 17.9375C58.985 18.4583 58.4121 19.2708 57.7038 20.375L57.3288 21L56.9225 21.625C56.6308 22.0833 56.3496 22.4792 56.0788 22.8125C55.3704 23.6458 54.5579 24.1146 53.6413 24.2188C54.1204 24.2812 54.6204 24.2083 55.1413 24C55.5788 23.8125 56.0058 23.5208 56.4225 23.125C56.735 22.7917 57.0579 22.3958 57.3913 21.9375L57.8288 21.3438L58.235 20.7188L58.985 19.4375ZM41.4225 8.84375C41.7558 7.69792 42.1413 6.75 42.5788 6C43.2038 4.91667 43.9746 4.3125 44.8913 4.1875C44.3704 4.14583 43.8496 4.28125 43.3288 4.59375C42.9329 4.84375 42.5475 5.22917 42.1725 5.75C41.6517 6.47917 41.2038 7.44792 40.8288 8.65625C40.2871 10.6771 40.0892 12.7812 40.235 14.9688L40.485 13.4062L40.735 11.875C40.9433 10.7083 41.1725 9.69792 41.4225 8.84375ZM76.235 4.6875C77.3808 2.52083 78.86 1.375 80.6725 1.25C83.61 1.0625 85.7038 3.20833 86.9538 7.6875C88.1621 12.0625 88.3183 17.7396 87.4225 24.7188C86.5267 31.7604 84.9433 37.1354 82.6725 40.8438C80.6308 44.1771 78.2142 45.8958 75.4225 46C70.6725 46.1458 67.0163 43.3646 64.4538 37.6562C63.6621 35.8646 62.9225 35.1458 62.235 35.5C61.7767 35.75 61.11 36.7708 60.235 38.5625C59.1308 40.875 58.0996 42.5208 57.1413 43.5C56.0579 44.6042 54.735 45.2396 53.1725 45.4062C49.985 45.7396 47.0996 44.4271 44.5163 41.4688C41.5788 38.0938 39.5892 33.0625 38.5475 26.375C37.5267 19.875 37.4746 14.3333 38.3913 9.75C39.4538 4.625 41.5683 1.96875 44.735 1.78125C46.5892 1.65625 48.0683 2.57292 49.1725 4.53125C50.0058 6.01042 50.6621 8.22917 51.1413 11.1875C51.3079 12.1042 51.485 13.3229 51.6725 14.8438L51.7663 15.7188L51.8913 16.5625C51.9746 17.1875 52.0475 17.7083 52.11 18.125C52.4433 20.3333 52.8808 21.5417 53.4225 21.75C53.8392 21.9167 54.3392 21.6042 54.9225 20.8125C55.1308 20.5208 55.4121 20.0938 55.7663 19.5312L55.985 19.1562L56.235 18.7812L56.735 18C57.61 16.6667 58.4329 15.6562 59.2038 14.9688C60.2663 14.0104 61.4017 13.5 62.61 13.4375C63.6725 13.3542 64.6933 13.7604 65.6725 14.6562C66.36 15.3229 67.1204 16.3333 67.9538 17.6875L68.4538 18.5312L68.9225 19.3125C69.2767 19.9375 69.5683 20.4167 69.7975 20.75C70.4433 21.6667 71.0267 22.1042 71.5475 22.0625C72.0683 22.0208 72.5267 20.9375 72.9225 18.8125C72.985 18.3958 73.0683 17.8854 73.1725 17.2812L73.2975 16.4375L73.4538 15.5312C73.6829 13.9688 73.8808 12.7188 74.0475 11.7812C74.6308 8.69792 75.36 6.33333 76.235 4.6875ZM111.533 33.0625L112.001 32.9062C113.397 32.4688 114.637 32.1354 115.72 31.9062C115.158 31.8021 114.501 31.8021 113.751 31.9062C113.168 31.9688 112.522 32.1146 111.814 32.3438C111.564 32.4062 111.251 32.5208 110.876 32.6875L110.439 32.8438L110.001 33.0312C109.397 33.2396 108.772 33.4062 108.126 33.5312C108.73 33.6562 109.397 33.6354 110.126 33.4688C110.376 33.4271 110.699 33.3438 111.095 33.2188L111.533 33.0625ZM99.9075 5.0625C100.678 4.625 101.543 4.28125 102.501 4.03125C103.293 3.80208 104.23 3.64583 105.314 3.5625C104.418 3.5 103.46 3.5625 102.439 3.75C101.439 3.9375 100.522 4.23958 99.6888 4.65625C98.8346 5.07292 98.0325 5.625 97.2825 6.3125C96.6367 6.91667 96.0429 7.70833 95.5013 8.6875C94.6471 10.2292 94.0013 12.0521 93.5638 14.1562C93.1888 15.9688 92.9908 17.875 92.97 19.875L93.1575 18.4375C93.2408 17.8958 93.3242 17.4271 93.4075 17.0312C93.595 16.0521 93.8033 15.125 94.0325 14.25C94.595 12.0833 95.2617 10.3229 96.0325 8.96875C96.5325 8.07292 97.0742 7.33333 97.6575 6.75C98.2617 6.14583 99.0117 5.58333 99.9075 5.0625ZM108.501 20.625L108.283 20.7188L107.783 20.875L107.314 21.0312C107.605 21.1354 107.949 21.1771 108.345 21.1562C108.491 21.1562 108.668 21.1354 108.876 21.0938L109.126 21.0625L109.345 21.0312C109.637 20.9896 109.949 20.9583 110.283 20.9375C110.678 20.9375 111.012 20.9688 111.283 21.0312C111.095 20.7604 110.783 20.5729 110.345 20.4688C110.033 20.3854 109.668 20.375 109.251 20.4375C109.105 20.4583 108.939 20.5 108.751 20.5625L108.501 20.625ZM107.158 30.9375C107.908 31.2292 108.824 31.1667 109.908 30.75C113.449 29.4167 116.22 29.1354 118.22 29.9062C120.116 30.6354 121.053 32.1979 121.033 34.5938C121.012 36.3854 120.147 38.1771 118.439 39.9688C116.793 41.6562 114.689 43.0521 112.126 44.1562C109.501 45.3021 106.908 45.9167 104.345 46C101.533 46.0833 99.1679 45.5 97.2513 44.25C95.2721 42.9792 93.6679 40.5312 92.4388 36.9062C91.2929 33.5312 90.6263 29.6771 90.4388 25.3438C90.2721 20.9896 90.6263 17 91.5013 13.375C92.4596 9.4375 93.8971 6.5625 95.8138 4.75C97.8971 2.79167 100.418 1.625 103.376 1.25C106.001 0.9375 108.616 1.25 111.22 2.1875C113.699 3.10417 115.574 4.36458 116.845 5.96875C118.178 7.65625 118.48 9.32292 117.751 10.9688C117.335 11.9271 116.595 12.625 115.533 13.0625C114.783 13.375 113.71 13.5833 112.314 13.6875L111.47 13.75L110.595 13.7812C109.908 13.8229 109.355 13.875 108.939 13.9375C107.73 14.0833 106.835 14.375 106.251 14.8125C105.855 15.1042 105.585 15.5 105.439 16C105.314 16.4792 105.324 16.9479 105.47 17.4062C105.866 18.4896 106.751 18.8542 108.126 18.5C109.751 18.0833 111.147 18.1979 112.314 18.8438C113.46 19.4688 114.074 20.4271 114.158 21.7188C114.241 23.1146 113.793 24.2604 112.814 25.1562C111.73 26.1354 110.074 26.7292 107.845 26.9375C107.095 27.0208 106.533 27.3438 106.158 27.9062C105.824 28.4479 105.741 29.0208 105.908 29.625C106.095 30.2708 106.512 30.7083 107.158 30.9375ZM144.705 33.0625L145.174 32.9062C146.57 32.4688 147.809 32.1354 148.893 31.9062C148.33 31.8021 147.674 31.8021 146.924 31.9062C146.34 31.9688 145.695 32.1146 144.986 32.3438C144.736 32.4062 144.424 32.5208 144.049 32.6875L143.611 32.8438L143.174 33.0312C142.57 33.2396 141.945 33.4062 141.299 33.5312C141.903 33.6562 142.57 33.6354 143.299 33.4688C143.549 33.4271 143.872 33.3438 144.268 33.2188L144.705 33.0625ZM133.08 5.0625C133.851 4.625 134.715 4.28125 135.674 4.03125C136.465 3.80208 137.403 3.64583 138.486 3.5625C137.59 3.5 136.632 3.5625 135.611 3.75C134.611 3.9375 133.695 4.23958 132.861 4.65625C132.007 5.07292 131.205 5.625 130.455 6.3125C129.809 6.91667 129.215 7.70833 128.674 8.6875C127.82 10.2292 127.174 12.0521 126.736 14.1562C126.361 15.9688 126.163 17.875 126.143 19.875L126.33 18.4375C126.413 17.8958 126.497 17.4271 126.58 17.0312C126.768 16.0521 126.976 15.125 127.205 14.25C127.768 12.0833 128.434 10.3229 129.205 8.96875C129.705 8.07292 130.247 7.33333 130.83 6.75C131.434 6.14583 132.184 5.58333 133.08 5.0625ZM141.674 20.625L141.455 20.7188L140.955 20.875L140.486 21.0312C140.778 21.1354 141.122 21.1771 141.518 21.1562C141.663 21.1562 141.84 21.1354 142.049 21.0938L142.299 21.0625L142.518 21.0312C142.809 20.9896 143.122 20.9583 143.455 20.9375C143.851 20.9375 144.184 20.9688 144.455 21.0312C144.268 20.7604 143.955 20.5729 143.518 20.4688C143.205 20.3854 142.84 20.375 142.424 20.4375C142.278 20.4583 142.111 20.5 141.924 20.5625L141.674 20.625ZM140.33 30.9375C141.08 31.2292 141.997 31.1667 143.08 30.75C146.622 29.4167 149.393 29.1354 151.393 29.9062C153.288 30.6354 154.226 32.1979 154.205 34.5938C154.184 36.3854 153.32 38.1771 151.611 39.9688C149.965 41.6562 147.861 43.0521 145.299 44.1562C142.674 45.3021 140.08 45.9167 137.518 46C134.705 46.0833 132.34 45.5 130.424 44.25C128.445 42.9792 126.84 40.5312 125.611 36.9062C124.465 33.5312 123.799 29.6771 123.611 25.3438C123.445 20.9896 123.799 17 124.674 13.375C125.632 9.4375 127.07 6.5625 128.986 4.75C131.07 2.79167 133.59 1.625 136.549 1.25C139.174 0.9375 141.788 1.25 144.393 2.1875C146.872 3.10417 148.747 4.36458 150.018 5.96875C151.351 7.65625 151.653 9.32292 150.924 10.9688C150.507 11.9271 149.768 12.625 148.705 13.0625C147.955 13.375 146.882 13.5833 145.486 13.6875L144.643 13.75L143.768 13.7812C143.08 13.8229 142.528 13.875 142.111 13.9375C140.903 14.0833 140.007 14.375 139.424 14.8125C139.028 15.1042 138.757 15.5 138.611 16C138.486 16.4792 138.497 16.9479 138.643 17.4062C139.038 18.4896 139.924 18.8542 141.299 18.5C142.924 18.0833 144.32 18.1979 145.486 18.8438C146.632 19.4688 147.247 20.4271 147.33 21.7188C147.413 23.1146 146.965 24.2604 145.986 25.1562C144.903 26.1354 143.247 26.7292 141.018 26.9375C140.268 27.0208 139.705 27.3438 139.33 27.9062C138.997 28.4479 138.913 29.0208 139.08 29.625C139.268 30.2708 139.684 30.7083 140.33 30.9375ZM164.346 4.84375C165.263 4.57292 166.45 4.33333 167.909 4.125C168.992 3.95833 170.211 3.8125 171.565 3.6875C168.961 3.4375 166.503 3.625 164.19 4.25C162.753 4.6875 161.617 5.20833 160.784 5.8125C160.18 6.27083 159.742 6.73958 159.471 7.21875C159.138 7.80208 159.044 8.41667 159.19 9.0625C159.19 8.375 159.367 7.8125 159.721 7.375C159.992 7 160.43 6.61458 161.034 6.21875C161.867 5.67708 162.971 5.21875 164.346 4.84375ZM161.44 3C164.607 1.625 168.742 1.07292 173.846 1.34375C179.7 1.65625 184.461 2.78125 188.128 4.71875C189.961 5.69792 191.273 6.78125 192.065 7.96875C192.919 9.23958 193.138 10.5833 192.721 12C192.409 13.125 191.742 13.9271 190.721 14.4062C189.95 14.7812 188.888 14.9792 187.534 15L186.69 15.0312L185.846 15C185.096 15 184.555 15 184.221 15C183.055 15.0417 182.242 15.2396 181.784 15.5938C181.096 16.1354 180.773 18.0625 180.815 21.375C180.857 24.4792 181.2 28.2188 181.846 32.5938C183.055 40.8854 181.409 45.3333 176.909 45.9375C174.471 46.25 172.367 45.4792 170.596 43.625C168.93 41.875 167.961 39.5833 167.69 36.75C167.503 34.875 167.482 32.6771 167.628 30.1562C167.711 28.3854 167.888 26.2396 168.159 23.7188C168.721 18.7604 168.919 16.0521 168.753 15.5938C168.461 14.8229 167.68 14.3021 166.409 14.0312C165.93 13.9271 165.305 13.8438 164.534 13.7812L163.503 13.6875L162.471 13.5938C160.784 13.4062 159.523 13.0625 158.69 12.5625C157.544 11.875 156.909 10.7708 156.784 9.25C156.534 6.54167 158.086 4.45833 161.44 3Z" fill="#FE959D"/>
</svg>
