<svg width="44" height="44" viewBox="0 0 44 44" fill="none" xmlns="http://www.w3.org/2000/svg">
<path d="M30.9943 13.1693C31.0031 13.1693 31.0147 13.1693 31.0264 13.1693C31.3317 13.1693 31.6151 13.2643 31.8474 13.4279L31.843 13.425C32.0125 13.5725 32.1264 13.7799 32.1542 14.0137V14.0181C32.1834 14.1963 32.1995 14.4008 32.1995 14.6097C32.1995 14.7046 32.1965 14.7981 32.1892 14.8916V14.8785C31.8606 18.3392 30.4348 26.7316 29.7102 30.6057C29.4035 32.2462 28.8001 32.7955 28.2158 32.8481C26.9463 32.9664 25.9822 32.0096 24.7522 31.2032C22.8268 29.9396 21.7385 29.1537 19.8701 27.9222C17.7096 26.5008 19.1105 25.7163 20.3405 24.4396C20.6633 24.1036 26.2598 19.0126 26.3693 18.551C26.3752 18.5232 26.3781 18.4926 26.3781 18.4604C26.3781 18.3465 26.3357 18.2428 26.2671 18.1639C26.1911 18.1142 26.0961 18.0865 25.9968 18.0865C25.9311 18.0865 25.8683 18.0996 25.8098 18.1215L25.8127 18.1201C25.6199 18.1639 22.5444 20.1964 16.5862 24.2175C15.9361 24.7303 15.1151 25.0546 14.2211 25.0926H14.2124C12.9458 24.9392 11.7961 24.6572 10.7049 24.2555L10.813 24.2906C9.44276 23.8436 8.35445 23.6084 8.44794 22.8517C8.49761 22.4582 9.04006 22.0555 10.0753 21.6436C16.4523 18.8651 20.7047 17.0337 22.8327 16.1494C25.1802 14.9033 27.9017 13.8778 30.7635 13.2131L30.9928 13.1679L30.9943 13.1693ZM21.9489 0C9.82112 0.0292165 0 9.86786 0 22C0 34.1497 9.84887 44 22 44C34.1511 44 44 34.1511 44 22C44 9.86786 34.1789 0.0292165 22.0541 0H22.0511C22.017 0 21.983 0 21.9489 0Z" fill="#FAEBD7"/>
</svg>
